<svg xmlns="http://www.w3.org/2000/svg" width="256" height="256" viewBox="0 0 256 256" role="img" aria-labelledby="title desc">
  <title id="title">LOOM mark</title>
  <desc id="desc">A continuous thread passes through four frames, resumes after a gap, and loops forward.</desc>
  <rect width="256" height="256" rx="52" fill="#F5F2EA"/>
  <g fill="none" stroke="#17212B" stroke-width="6">
    <rect x="38" y="61" width="42" height="88" rx="9"/>
    <rect x="88" y="61" width="42" height="88" rx="9"/>
    <rect x="138" y="61" width="42" height="88" rx="9"/>
    <rect x="188" y="61" width="30" height="88" rx="9"/>
  </g>
  <path d="M24 105H50C61 105 61 82 72 82S83 128 94 128s11-46 22-46 11 46 22 46 11-46 22-46 11 46 22 46"
        fill="none" stroke="#4169E1" stroke-width="10" stroke-linecap="round" stroke-linejoin="round"/>
  <circle cx="198" cy="128" r="5" fill="#4169E1"/>
  <circle cx="214" cy="128" r="5" fill="#4169E1" opacity=".55"/>
  <path d="M226 128c14 0 17 12 17 23 0 23-18 42-42 42H79"
        fill="none" stroke="#4169E1" stroke-width="10" stroke-linecap="round"/>
  <path d="M92 180 75 193l17 13" fill="none" stroke="#4169E1" stroke-width="10" stroke-linecap="round" stroke-linejoin="round"/>
</svg>
