<svg xmlns="http://www.w3.org/2000/svg" width="1280" height="360" viewBox="0 0 1280 360" role="img" aria-labelledby="title desc">
  <title id="title">LOOM — Keep the whole. Continue the work.</title>
  <desc id="desc">A flat minimal header showing a continuous thread moving through project understanding, expertise, verification, and delivery.</desc>
  <rect width="1280" height="360" rx="28" fill="#F5F2EA"/>
  <path d="M0 304H1280" stroke="#D8D3C8"/>
  <g transform="translate(84 70)">
    <g fill="none" stroke="#17212B" stroke-width="4">
      <rect x="0" y="16" width="38" height="76" rx="8"/>
      <rect x="47" y="16" width="38" height="76" rx="8"/>
      <rect x="94" y="16" width="38" height="76" rx="8"/>
      <rect x="141" y="16" width="30" height="76" rx="8"/>
    </g>
    <path d="M-14 54H10c10 0 10-20 20-20s10 40 20 40 10-40 20-40 10 40 20 40 10-40 20-40 10 40 20 40"
          fill="none" stroke="#4169E1" stroke-width="8" stroke-linecap="round" stroke-linejoin="round"/>
    <circle cx="145" cy="74" r="4" fill="#4169E1"/><circle cx="158" cy="74" r="4" fill="#4169E1" opacity=".5"/>
    <path d="M171 74c20 0 27 13 27 28 0 23-18 42-42 42H59" fill="none" stroke="#4169E1" stroke-width="8" stroke-linecap="round"/>
    <path d="M72 132 56 144l16 12" fill="none" stroke="#4169E1" stroke-width="8" stroke-linecap="round" stroke-linejoin="round"/>
  </g>
  <g font-family="Inter,Segoe UI,Arial,sans-serif" fill="#17212B">
    <text x="350" y="142" font-size="94" font-weight="750" letter-spacing="12">LOOM</text>
    <text x="355" y="190" font-size="24" font-weight="560">Keep the whole. Continue the work.</text>
    <text x="355" y="228" font-size="17" fill="#58636D">Invisible project understanding and continuity for AI Agents.</text>
  </g>
  <g transform="translate(82 311)" font-family="Inter,Segoe UI,Arial,sans-serif" font-size="13" font-weight="650" letter-spacing="1.1" fill="#17212B">
    <circle cx="4" cy="-1" r="4" fill="#4169E1"/><text x="18" y="4">UNDERSTAND</text>
    <path d="M126-1h42" stroke="#9AD8C2" stroke-width="3"/>
    <circle cx="181" cy="-1" r="4" fill="#9AD8C2"/><text x="195" y="4">REMEMBER</text>
    <path d="M306-1h42" stroke="#E88773" stroke-width="3"/>
    <circle cx="361" cy="-1" r="4" fill="#E88773"/><text x="375" y="4">VERIFY</text>
    <path d="M452-1h42" stroke="#4169E1" stroke-width="3"/>
    <circle cx="507" cy="-1" r="4" fill="#4169E1"/><text x="521" y="4">CONTINUE</text>
  </g>
  <text x="1198" y="322" text-anchor="end" font-family="ui-monospace,SFMono-Regular,Consolas,monospace" font-size="13" fill="#58636D">npm i -g @haaaiawd/loom</text>
</svg>
